# xmcd
#
# Track frame offsets: 
#        150
#        16295
#        29762
#        41464
#        52634
#        64936
#        87251
#        99689
#        119641
#        133391
#        147371
#        153076
#        171043
#        183143
#        204133
#        216110
#        230263
#        246463
#        262993
#        276331
#        291589
#        305111
#        317039
#        331059
#        343626
#        348524
#
# Disc length: 4790 seconds
#
# Revision: 0
# Processed by: cddbd v1.5.1PL0 Copyright (c) Steve Scherf et al.
# Submitted via: ExactAudioCopy v0.95a5
#
DISCID=8a12b41a
DTITLE=Васильев, Иващенко - Барды
DYEAR=2004
DGENRE=Acoustic
TTITLE0=Непутёвый
TTITLE1=Который час
TTITLE2=Одуванчиков дым
TTITLE3=Пробежка вдоль мексиканского залива
TTITLE4=Две бабочки
TTITLE5=Вечный думатель
TTITLE6=Ария из оперы "Сибирский цирюльник"
TTITLE7=Люготный билет
TTITLE8=Наше и ихнее
TTITLE9=Скажи-ка, дядя
TTITLE10=У штурвала
TTITLE11=Ягоды жуя
TTITLE12=Перья от павлина
TTITLE13=Если бы не мы
TTITLE14=Варяг
TTITLE15=Гудок
TTITLE16=Сосна
TTITLE17=Я тот же самый человек
TTITLE18=Пешеходы
TTITLE19=Жизнерадостные горемыки
TTITLE20=Пора по пиву
TTITLE21=Двадцать метров
TTITLE22=Мерседетый шестисот
TTITLE23=Натуральный кислород
TTITLE24=Коричневые брюки
TTITLE25=Бедное Му-му
EXTD=
EXTT0=
EXTT1=
EXTT2=
EXTT3=
EXTT4=
EXTT5=
EXTT6=
EXTT7=
EXTT8=
EXTT9=
EXTT10=
EXTT11=
EXTT12=
EXTT13=
EXTT14=
EXTT15=
EXTT16=
EXTT17=
EXTT18=
EXTT19=
EXTT20=
EXTT21=
EXTT22=
EXTT23=
EXTT24=
EXTT25=
PLAYORDER=
